<mxfile host="app.diagrams.net" agent="Mozilla/5.0 (Windows NT 10.0; Win64; x64; rv:131.0) Gecko/20100101 Firefox/131.0" version="24.7.15">
  <diagram name="Page-1" id="a39jIsaw9aKK6V7gn4P4">
    <mxGraphModel dx="1313" dy="698" grid="1" gridSize="10" guides="1" tooltips="1" connect="1" arrows="1" fold="1" page="1" pageScale="1" pageWidth="850" pageHeight="1100" math="0" shadow="0">
      <root>
        <mxCell id="0" />
        <mxCell id="1" parent="0" />
        <mxCell id="2yvcqviTpGsJPlgFv-6w-1" value="User inputs password and username" style="rounded=1;whiteSpace=wrap;html=1;" vertex="1" parent="1">
          <mxGeometry x="40" y="40" width="120" height="60" as="geometry" />
        </mxCell>
        <mxCell id="2yvcqviTpGsJPlgFv-6w-2" value="" style="endArrow=classic;html=1;rounded=0;" edge="1" parent="1">
          <mxGeometry width="50" height="50" relative="1" as="geometry">
            <mxPoint x="99.69" y="110" as="sourcePoint" />
            <mxPoint x="100" y="140" as="targetPoint" />
          </mxGeometry>
        </mxCell>
        <mxCell id="2yvcqviTpGsJPlgFv-6w-3" value="&lt;div&gt;Does username exist in database?&lt;/div&gt;" style="rounded=1;whiteSpace=wrap;html=1;" vertex="1" parent="1">
          <mxGeometry x="40" y="150" width="120" height="60" as="geometry" />
        </mxCell>
        <mxCell id="2yvcqviTpGsJPlgFv-6w-5" value="" style="endArrow=classic;html=1;rounded=0;" edge="1" parent="1">
          <mxGeometry width="50" height="50" relative="1" as="geometry">
            <mxPoint x="170" y="180" as="sourcePoint" />
            <mxPoint x="200" y="180" as="targetPoint" />
          </mxGeometry>
        </mxCell>
        <mxCell id="2yvcqviTpGsJPlgFv-6w-6" value="Error: User doesnt exist!" style="rounded=1;whiteSpace=wrap;html=1;" vertex="1" parent="1">
          <mxGeometry x="210" y="150" width="120" height="60" as="geometry" />
        </mxCell>
        <mxCell id="2yvcqviTpGsJPlgFv-6w-7" value="No" style="text;html=1;align=center;verticalAlign=middle;whiteSpace=wrap;rounded=0;" vertex="1" parent="1">
          <mxGeometry x="150" y="150" width="60" height="30" as="geometry" />
        </mxCell>
        <mxCell id="2yvcqviTpGsJPlgFv-6w-8" value="" style="endArrow=classic;html=1;rounded=0;" edge="1" parent="1">
          <mxGeometry width="50" height="50" relative="1" as="geometry">
            <mxPoint x="99.69" y="220" as="sourcePoint" />
            <mxPoint x="99.69" y="250" as="targetPoint" />
          </mxGeometry>
        </mxCell>
        <mxCell id="2yvcqviTpGsJPlgFv-6w-9" value="Hash user input password" style="rounded=1;whiteSpace=wrap;html=1;" vertex="1" parent="1">
          <mxGeometry x="40" y="390" width="120" height="60" as="geometry" />
        </mxCell>
        <mxCell id="2yvcqviTpGsJPlgFv-6w-10" value="" style="endArrow=classic;html=1;rounded=0;" edge="1" parent="1">
          <mxGeometry width="50" height="50" relative="1" as="geometry">
            <mxPoint x="99.69" y="350" as="sourcePoint" />
            <mxPoint x="99.69" y="380" as="targetPoint" />
          </mxGeometry>
        </mxCell>
        <mxCell id="2yvcqviTpGsJPlgFv-6w-11" value="Get password from database where username equals username that was inputted" style="rounded=1;whiteSpace=wrap;html=1;" vertex="1" parent="1">
          <mxGeometry x="40" y="250" width="120" height="90" as="geometry" />
        </mxCell>
        <mxCell id="2yvcqviTpGsJPlgFv-6w-12" value="" style="endArrow=classic;html=1;rounded=0;" edge="1" parent="1">
          <mxGeometry width="50" height="50" relative="1" as="geometry">
            <mxPoint x="99.69" y="460" as="sourcePoint" />
            <mxPoint x="99.69" y="490" as="targetPoint" />
          </mxGeometry>
        </mxCell>
        <mxCell id="2yvcqviTpGsJPlgFv-6w-14" value="Compare database password hash with password hash from user input" style="rounded=1;whiteSpace=wrap;html=1;" vertex="1" parent="1">
          <mxGeometry x="40" y="500" width="120" height="60" as="geometry" />
        </mxCell>
        <mxCell id="2yvcqviTpGsJPlgFv-6w-15" value="" style="endArrow=classic;html=1;rounded=0;" edge="1" parent="1">
          <mxGeometry width="50" height="50" relative="1" as="geometry">
            <mxPoint x="99.69" y="570" as="sourcePoint" />
            <mxPoint x="99.69" y="600" as="targetPoint" />
          </mxGeometry>
        </mxCell>
        <mxCell id="2yvcqviTpGsJPlgFv-6w-16" value="" style="endArrow=classic;html=1;rounded=0;" edge="1" parent="1">
          <mxGeometry width="50" height="50" relative="1" as="geometry">
            <mxPoint x="170" y="530" as="sourcePoint" />
            <mxPoint x="200" y="530" as="targetPoint" />
          </mxGeometry>
        </mxCell>
        <mxCell id="2yvcqviTpGsJPlgFv-6w-17" value="Error: Wrong password!" style="rounded=1;whiteSpace=wrap;html=1;" vertex="1" parent="1">
          <mxGeometry x="210" y="500" width="120" height="60" as="geometry" />
        </mxCell>
        <mxCell id="2yvcqviTpGsJPlgFv-6w-18" value="No match" style="text;html=1;align=center;verticalAlign=middle;whiteSpace=wrap;rounded=0;" vertex="1" parent="1">
          <mxGeometry x="160" y="500" width="50" height="20" as="geometry" />
        </mxCell>
        <mxCell id="2yvcqviTpGsJPlgFv-6w-19" value="Match" style="text;html=1;align=center;verticalAlign=middle;whiteSpace=wrap;rounded=0;" vertex="1" parent="1">
          <mxGeometry x="100" y="570" width="60" height="30" as="geometry" />
        </mxCell>
        <mxCell id="2yvcqviTpGsJPlgFv-6w-20" value="User is logged in" style="rounded=1;whiteSpace=wrap;html=1;" vertex="1" parent="1">
          <mxGeometry x="40" y="610" width="120" height="60" as="geometry" />
        </mxCell>
        <mxCell id="2yvcqviTpGsJPlgFv-6w-21" value="&lt;font style=&quot;font-size: 30px;&quot;&gt;Login page&lt;/font&gt;" style="text;html=1;align=center;verticalAlign=middle;whiteSpace=wrap;rounded=0;" vertex="1" parent="1">
          <mxGeometry x="670" y="10" width="170" height="30" as="geometry" />
        </mxCell>
        <mxCell id="2yvcqviTpGsJPlgFv-6w-22" value="Yes" style="text;html=1;align=center;verticalAlign=middle;whiteSpace=wrap;rounded=0;" vertex="1" parent="1">
          <mxGeometry x="90" y="220" width="60" height="30" as="geometry" />
        </mxCell>
      </root>
    </mxGraphModel>
  </diagram>
</mxfile>
